<?xml version="1.0" encoding="UTF-8"?>
<svg version="1.1" xmlns="http://www.w3.org/2000/svg" width="3147" height="826">
<path d="M0 0 C1.1132622 -0.00172683 2.22652439 -0.00345366 3.3735218 -0.00523281 C7.10799743 -0.00959785 10.842428 -0.00661474 14.5769043 -0.00341797 C16.60020165 -0.00384118 18.62349763 -0.00500776 20.64679462 -0.00626713 C28.82161371 -0.01130463 36.99641025 -0.0064888 45.1712265 0.0006218 C49.91381299 0.0046612 54.65639898 0.00648859 59.39898682 0.00808716 C115.84937031 0.02951556 172.29902458 0.2437397 228.74868196 0.51966929 C235.17497902 0.55107678 241.60127915 0.58166418 248.02758378 0.6114819 C275.05545037 0.7371558 302.08296672 0.88901389 329.11024284 1.1093092 C331.53130154 1.12892999 333.95236429 1.14796175 336.37342834 1.16690826 C344.88797235 1.2346431 353.40204935 1.31908246 361.91614151 1.43031502 C364.33528791 1.46052257 366.75449041 1.48663855 369.17373276 1.50781059 C391.08600417 1.70880084 413.14905581 3.17360315 434.58862305 7.94189453 C436.39109497 8.33199707 436.39109497 8.33199707 438.22998047 8.72998047 C481.52320421 18.32818398 522.53670588 38.52100842 555.1081543 68.83642578 C557.22372053 70.79207519 559.38105596 72.65505334 561.58862305 74.50439453 C577.39815743 88.35777963 589.70351327 106.30157925 600.58862305 124.12939453 C600.98001465 124.76635254 601.37140625 125.40331055 601.7746582 126.05957031 C632.74076951 177.02765211 643.87531272 241.96858127 630.27612305 300.06689453 C622.78674591 330.12031225 609.70108694 357.7140082 590.58862305 382.12939453 C589.83967773 383.09103516 589.09073242 384.05267578 588.3190918 385.04345703 C582.43587524 392.40012783 576.07173263 399.3029427 569.58862305 406.12939453 C568.41106445 407.37076172 568.41106445 407.37076172 567.2097168 408.63720703 C562.60958135 413.36078082 557.75621863 417.61532452 552.6003418 421.72314453 C550.57833773 423.33864973 548.58084509 424.98527935 546.6081543 426.66064453 C538.24432925 433.70099939 529.30686132 439.83314549 520.21362305 445.87939453 C519.57192169 446.30620514 518.93022034 446.73301575 518.26907349 447.17276001 C511.2665471 451.81944576 504.22071057 456.38712755 497.08862305 460.83251953 C496.50124359 461.20052673 495.91386414 461.56853394 495.3086853 461.94769287 C492.53472144 463.68556625 489.75368809 465.40818057 486.9543457 467.10498047 C485.98029785 467.71116211 485.00625 468.31734375 484.00268555 468.94189453 C483.14626465 469.46396484 482.28984375 469.98603516 481.4074707 470.52392578 C480.80725098 471.05373047 480.20703125 471.58353516 479.58862305 472.12939453 C479.58862305 476.49712744 480.25433932 477.76211015 482.4128418 481.43408203 C483.02272949 482.48112305 483.63261719 483.52816406 484.26098633 484.60693359 C484.92598145 485.7280957 485.59097656 486.84925781 486.27612305 488.00439453 C486.96418835 489.17812168 487.65151704 490.35228092 488.33813477 491.52685547 C490.41117637 495.06725758 492.49964459 498.598373 494.58862305 502.12939453 C495.73357479 504.07445957 496.87813624 506.01975443 498.0222168 507.96533203 C500.6772484 512.47361033 503.34322228 516.97530498 506.01342773 521.47460938 C508.62606417 525.87786551 511.23282593 530.28458843 513.83862305 534.69189453 C514.36544678 535.58239502 514.89227051 536.47289551 515.43505859 537.39038086 C518.53544363 542.63637064 521.62127366 547.89065251 524.6940918 553.15283203 C525.77486507 555.00266586 526.85573306 556.85244428 527.93667603 558.70217896 C528.66025826 559.94067429 529.38354747 561.17934087 530.10653687 562.41818237 C535.75342392 572.08929883 541.52383444 581.67426676 547.47509766 591.16235352 C548.0191626 592.04093018 548.56322754 592.91950684 549.1237793 593.82470703 C549.60210205 594.58799316 550.0804248 595.3512793 550.57324219 596.13769531 C551.58862305 598.12939453 551.58862305 598.12939453 551.58862305 601.12939453 C534.13105222 601.15296813 516.67348649 601.17049185 499.21590328 601.1812067 C491.10633239 601.18631853 482.99677149 601.19326105 474.88720703 601.20483398 C467.80210934 601.21493993 460.7170189 601.22128489 453.6319142 601.22348303 C449.89569768 601.22476376 446.15950189 601.22767518 442.42329216 601.23512459 C432.81105402 601.25328515 423.20043168 601.22353625 413.58862305 601.12939453 C412.87658801 601.12325811 412.16455297 601.11712169 411.4309411 601.11079931 C407.10063502 601.07159694 402.77170677 601.00880619 398.44224465 600.91425216 C396.44409264 600.8744154 394.44560336 600.85280242 392.44716549 600.8317194 C381.427211 600.54144373 381.427211 600.54144373 376.58862305 596.12939453 C375.73204102 595.38302734 375.73204102 595.38302734 374.8581543 594.62158203 C369.47735396 588.64932643 365.57753116 581.76653458 361.4675293 574.89892578 C358.82877206 570.49685782 356.08151279 566.17670648 353.27612305 561.87939453 C349.07051298 555.42458879 344.90820022 548.94404941 340.77612305 542.44189453 C339.89283325 541.05212402 339.89283325 541.05212402 338.99169922 539.63427734 C337.78995021 537.7429467 336.58837237 535.85150728 335.38696289 533.95996094 C332.45688533 529.34805227 329.52255082 524.73885438 326.58862305 520.12939453 C325.42455007 518.29997412 324.26048758 516.47054702 323.09643555 514.64111328 C320.73794519 510.93482009 318.37846969 507.2291565 316.01831055 503.52392578 C309.00758651 492.51599391 302.01863472 481.49471364 295.05639648 470.45605469 C292.56878948 466.51279208 290.0785589 462.57118685 287.58862305 458.62939453 C286.5886108 457.04606893 285.5886108 455.4627356 284.58862305 453.87939453 C284.09362305 453.09564453 283.59862305 452.31189453 283.08862305 451.50439453 C274.83862305 438.44189453 274.83862305 438.44189453 266.58862305 425.37939453 C266.09386475 424.59604736 265.59910645 423.8127002 265.08935547 423.00561523 C264.08684061 421.41825928 263.0843995 419.83085674 262.08203125 418.2434082 C259.13712773 413.57980835 256.18981152 408.91775019 253.23950195 404.25756836 C252.26185709 402.71052773 251.28627809 401.1621797 250.31274414 399.61254883 C247.48020403 395.10489515 244.61342897 390.62284629 241.7097168 386.16064453 C224.58862305 359.63568254 224.58862305 359.63568254 224.58862305 350.12939453 C227.1301474 349.64946297 229.67183527 349.17042726 232.21362305 348.69189453 C232.92647461 348.5571875 233.63932617 348.42248047 234.3737793 348.28369141 C235.07631836 348.1515625 235.77885742 348.01943359 236.50268555 347.88330078 C237.14157715 347.762854 237.78046875 347.64240723 238.4387207 347.51831055 C239.50292236 347.32579712 239.50292236 347.32579712 240.58862305 347.12939453 C241.93053711 346.86727173 241.93053711 346.86727173 243.29956055 346.59985352 C247.31550173 346.02542369 251.24773072 345.91590966 255.29956055 345.84814453 C256.18358551 345.83018829 257.06761047 345.81223206 257.97842407 345.79373169 C259.93292151 345.75511995 261.88746479 345.71878032 263.84204102 345.68438721 C267.03241126 345.62818269 270.22260599 345.56529951 273.4128418 345.50195312 C287.07047323 345.24212359 300.72713369 345.08264827 314.38664627 344.97203827 C319.76646345 344.92718622 325.1462217 344.87548835 330.52598381 344.82450485 C335.85100306 344.77525829 341.17591054 344.73928082 346.5010891 344.71286201 C349.8920654 344.69307396 353.28286243 344.66129744 356.6737175 344.6267662 C358.24660113 344.61321271 359.81953625 344.60449627 361.39247513 344.60135269 C395.11717349 344.52400444 424.6049153 334.03227982 448.71362305 310.01220703 C466.64805927 290.88681215 473.51715393 266.20078612 472.72045898 240.56884766 C471.5089983 218.15233808 461.27055314 198.71502071 446.58862305 182.12939453 C445.97631836 181.43330078 445.36401367 180.73720703 444.7331543 180.02001953 C414.68798665 147.98892396 367.69825871 148.48709076 326.95182896 147.03545594 C320.60805938 146.83698519 314.26320381 146.69497347 307.91772461 146.56420898 C306.41462762 146.53240884 306.41462762 146.53240884 304.88116503 146.49996626 C283.18771199 146.0516178 261.5020468 146.05142126 239.80516815 146.14592552 C233.11941507 146.17460641 226.43366099 146.19101627 219.74786377 146.20539856 C200.78163534 146.24742898 181.81547552 146.29616491 162.84936523 146.3762207 C152.27721139 146.42074671 141.70511892 146.45096692 131.1328795 146.46507818 C125.57695844 146.47310802 120.0212782 146.48844481 114.46544647 146.5217495 C109.27413653 146.55285375 104.08311566 146.56527279 98.891716 146.56353188 C96.99668096 146.5662171 95.10164064 146.57571983 93.2066803 146.59275818 C82.03719405 146.68882199 72.72727755 146.34769038 62.83862305 140.50439453 C55.75575444 133.02803322 50.80140654 123.62997789 45.62759399 114.78692627 C43.53131294 111.20610329 41.42008707 107.63413385 39.30737305 104.06298828 C38.89397171 103.36411499 38.48057037 102.6652417 38.05464172 101.94519043 C34.48113559 95.91893171 30.78363321 89.97983484 27.0090332 84.07763672 C22.85497711 77.5787574 18.80893747 71.01661285 14.77612305 64.44189453 C9.44247248 55.74886114 4.06907516 47.0826295 -1.34887695 38.44189453 C-21.41137695 6.3813856 -21.41137695 6.3813856 -21.41137695 1.12939453 C-14.25129419 0.27081502 -7.20744438 -0.01432027 0 0 Z " fill="#000000" transform="translate(432.411376953125,-0.12939453125)"/>
<path d="M0 0 C1.04575195 -0.01313232 2.09150391 -0.02626465 3.16894531 -0.03979492 C14.77220348 -0.05170228 25.64009936 1.35515886 35.3125 8.1875 C37.02124452 10.22581074 38.50304622 12.16044714 39.9765625 14.3515625 C40.39878586 14.96103729 40.82100922 15.57051208 41.25602722 16.19845581 C42.62357178 18.18481956 43.97064749 20.18370198 45.3125 22.1875 C45.76442719 22.86047119 46.21635437 23.53344238 46.68197632 24.22680664 C50.03261541 29.23174826 53.33242394 34.26924849 56.625 39.3125 C57.64464353 40.86976855 58.66450236 42.42689615 59.68457031 43.98388672 C62.56478459 48.3823294 65.43964377 52.78424883 68.3125 57.1875 C69.37380127 58.81365234 69.37380127 58.81365234 70.45654297 60.47265625 C73.63143536 65.34088039 76.7983342 70.21419871 79.95654297 75.09326172 C81.29359577 77.15830294 82.63288457 79.22187821 83.97265625 81.28515625 C90.10180189 90.73190247 96.1754733 100.21364579 102.23364258 109.70605469 C105.53756746 114.87686519 108.85788978 120.03515168 112.2265625 125.1640625 C112.83258301 126.08791748 113.43860352 127.01177246 114.06298828 127.96362305 C115.20580763 129.70209273 116.35245627 131.43805283 117.50341797 133.17114258 C118.00760254 133.93837646 118.51178711 134.70561035 119.03125 135.49609375 C119.47404297 136.16439209 119.91683594 136.83269043 120.37304688 137.52124023 C121.3125 139.1875 121.3125 139.1875 121.3125 141.1875 C104.74809155 142.48762221 88.17782448 143.50054869 71.5859375 144.37109375 C69.63348232 144.47422367 67.68102872 144.57738353 65.72857666 144.68057251 C57.69107982 145.10422764 49.65347345 145.52545744 41.61523438 145.93481445 C-24.37621083 147.48176895 -24.37621083 147.48176895 -79.5 180 C-98.33890525 202.15124024 -102.47795111 227.90002645 -100.6875 256.1875 C-97.95904801 281.64012085 -85.08232823 306.45288745 -65.6875 323.1875 C-44.51346798 340.0166554 -21.48584205 345.1229295 5.1328125 345.46875 C6.87124168 345.49575233 6.87124168 345.49575233 8.64479065 345.52330017 C11.88584665 345.57212971 15.12692776 345.6168652 18.3680687 345.65961838 C20.46322767 345.68784663 22.55834995 345.71802943 24.6534729 345.74880981 C44.5884623 346.04074196 64.52374924 346.23052711 84.46031952 346.37548447 C88.15627089 346.4025441 91.85221423 346.4305274 95.54815674 346.45877075 C98.04431134 346.47774617 100.54046613 346.4966975 103.03662109 346.515625 C104.27893242 346.52505568 105.52124374 346.53448635 106.80120087 346.5442028 C112.92793229 346.58994737 119.05465085 346.63217162 125.18145752 346.66650391 C150.36632583 346.80832954 175.53970392 347.09068678 200.71271706 347.91667366 C203.07293948 347.99393837 205.43326963 348.06799896 207.79370689 348.13839531 C259.63361601 349.72106506 306.898504 362.91505496 348.3125 395.1875 C349.56160156 396.15042969 349.56160156 396.15042969 350.8359375 397.1328125 C356.08407622 401.25058288 361.07703284 405.59775658 366 410.09765625 C367.96235514 411.87106841 369.95911409 413.56900245 372 415.25 C375.0951178 417.88551794 377.69779996 420.7902324 380.3203125 423.890625 C381.75275744 425.54214975 383.2331371 427.15254082 384.7421875 428.734375 C422.45609925 468.30665342 445.15503179 524.6072329 445.6875 579.1875 C445.70143799 580.10152588 445.71537598 581.01555176 445.72973633 581.95727539 C445.69279484 587.07679021 445.292658 590.8287655 442.3125 595.1875 C440.41015625 596.61328125 440.41015625 596.61328125 438.375 597.5 C437.70597656 597.80550781 437.03695312 598.11101563 436.34765625 598.42578125 C423.14123406 603.36868399 406.49928904 601.31898488 392.6328125 601.28515625 C390.36595694 601.28328757 388.09910098 601.2818658 385.83224487 601.28086853 C379.91077529 601.27707875 373.98933085 601.2672793 368.06787109 601.25616455 C362.00749044 601.24587372 355.94710566 601.24135458 349.88671875 601.23632812 C338.02863488 601.22565334 326.17056955 601.20862022 314.3125 601.1875 C313.9889151 600.56669556 313.6653302 599.94589111 313.3319397 599.30627441 C309.66145793 592.26529083 305.98803489 585.22584702 302.3125 578.1875 C301.91720093 577.43017578 301.52190186 576.67285156 301.11462402 575.89257812 C282.77508396 540.78009479 264.3961035 510.88928456 224.7578125 498.265625 C213.21142936 495.20536159 201.53282037 494.8912667 189.67651367 494.90039062 C188.05626081 494.89434844 186.43601105 494.88741974 184.81576538 494.87968445 C181.3494851 494.86490247 177.88326133 494.85607264 174.41695213 494.85197449 C168.88910276 494.84516943 163.36137079 494.82329948 157.83357239 494.79943848 C146.05574286 494.75067738 134.27788781 494.71838359 122.5 494.6875 C109.8684211 494.65418459 97.23688865 494.61740165 84.60537893 494.56336927 C80.03291954 494.54425376 75.46051873 494.52876743 70.88802147 494.52302551 C51.68776087 494.49803905 32.53973353 494.20251606 13.3605957 493.25195312 C12.52380921 493.21058322 11.68702271 493.16921331 10.82487905 493.12658978 C-13.13008213 491.91744918 -37.23749183 490.48829254 -60.6875 485.1875 C-61.61675293 484.97754395 -62.54600586 484.76758789 -63.50341797 484.55126953 C-103.76773151 475.21255305 -140.45353277 456.45062769 -170.21289062 427.61523438 C-171.6467092 426.22699414 -173.09659281 424.8554068 -174.546875 423.484375 C-212.87659672 386.45396588 -234.64527505 332.04429964 -242.6875 280.1875 C-242.86555176 279.05707275 -243.04360352 277.92664551 -243.22705078 276.76196289 C-244.85623513 265.30016326 -245.08646667 253.94024856 -245.0625 242.375 C-245.06168427 240.89057404 -245.06168427 240.89057404 -245.06085205 239.37615967 C-245.0204231 223.33556879 -244.15205456 207.90500298 -240.6875 192.1875 C-240.46787598 191.18686523 -240.24825195 190.18623047 -240.02197266 189.15527344 C-236.98416799 175.77861338 -232.82335591 162.89860056 -227.6875 150.1875 C-227.27612793 149.15834473 -227.27612793 149.15834473 -226.85644531 148.10839844 C-215.44700458 119.87787065 -197.7237093 95.0343532 -176.6875 73.1875 C-176.18573242 72.66381836 -175.68396484 72.14013672 -175.16699219 71.60058594 C-168.41293684 64.58592395 -161.43988091 58.1078506 -153.6875 52.1875 C-152.74874023 51.46675293 -152.74874023 51.46675293 -151.79101562 50.73144531 C-115.2064701 22.8500609 -72.36552001 6.25050862 -26.6875 1.1875 C-24.93759766 0.99027344 -24.93759766 0.99027344 -23.15234375 0.7890625 C-15.45296648 0.09677341 -7.72563221 0.06033888 0 0 Z " fill="#000000" transform="translate(244.6875,-0.1875)"/>
<path d="M0 0 C1.45155251 0.03546468 1.45155251 0.03546468 2.93242931 0.07164583 C3.97432545 0.06126123 5.01622158 0.05087663 6.08969033 0.04017735 C9.59910638 0.01625518 13.10484392 0.05679752 16.61407185 0.09678563 C19.14776167 0.09286264 21.68144796 0.08498551 24.21511471 0.07348314 C29.73285043 0.05752575 35.24943676 0.06960545 40.76705456 0.10622701 C48.97124256 0.16052868 57.17487951 0.16325084 65.37921446 0.15534911 C79.17970155 0.14352131 92.97980096 0.17360624 106.78017521 0.22750577 C120.44597891 0.28074302 134.11162117 0.31539597 147.77752781 0.3251811 C149.05165502 0.32610908 149.05165502 0.32610908 150.35152217 0.32705581 C154.6652158 0.33010078 158.97890958 0.33281324 163.29260351 0.3353977 C193.85357439 0.35430588 224.41433432 0.4149544 254.97518635 0.50012121 C284.66625566 0.58276866 314.35726726 0.6465272 344.04842854 0.68469152 C344.96349565 0.68587525 345.87856277 0.68705899 346.82135919 0.6882786 C356.0107652 0.70014518 365.20017165 0.71162752 374.3895785 0.72282833 C393.1097781 0.74565479 411.82997393 0.77104606 430.55016804 0.79798803 C431.84127949 0.79984144 431.84127949 0.79984144 433.15847401 0.8017323 C490.6459691 0.88455069 548.1333448 1.02734601 605.62069416 1.17907628 C603.9346656 5.57569835 601.75429494 9.45692158 599.24569416 13.42907628 C598.80797688 14.12436437 598.37025959 14.81965246 597.91927814 15.53600988 C587.52972897 31.86479316 576.07189322 47.52450636 562.89803791 61.71813878 C560.86167262 63.91867074 558.88807563 66.15636331 556.93319416 68.42907628 C550.45084349 75.84392287 543.3343216 82.05826283 535.62069416 88.17907628 C534.10088947 89.40690832 534.10088947 89.40690832 532.55038166 90.65954503 C463.0257962 146.1735136 360.13114268 133.14975674 253.92807245 133.30047247 C249.83782941 133.30263581 245.74758954 133.30589701 241.65734816 133.31015274 C190.40525528 133.36218401 190.40525528 133.36218401 170.90944767 132.9070693 C168.91557517 132.86140215 166.92146573 132.82644449 164.9273653 132.79214391 C137.12894689 131.97119155 118.81593767 119.13749232 98.56600666 101.69470128 C95.95659265 99.46597101 93.31179065 97.30772496 90.62069416 95.17907628 C86.16655182 91.64896996 81.83017811 87.99470502 77.50301838 84.3114005 C74.11700521 81.43304143 70.69962172 78.60109043 67.24569416 75.80407628 C62.12256349 71.63686504 57.14474488 67.31595171 52.16805744 62.97643957 C48.53350213 59.81455185 44.86557548 56.71064688 41.12069416 53.67907628 C36.75122079 50.13941388 32.48705335 46.49499319 28.24569416 42.80407628 C26.96446919 41.69076623 25.68321925 40.57748491 24.40194416 39.46423253 C23.7715926 38.9165421 23.14124104 38.36885167 22.49178791 37.80456457 C21.87432697 37.26815343 21.25686604 36.7317423 20.62069416 36.17907628 C20.02901447 35.66457921 19.43733479 35.15008214 18.82772541 34.61999425 C8.30051804 25.49148607 -1.07635928 18.82585514 -14.37930584 14.17907628 C-12.67965884 5.86070322 -8.77532221 0.19893832 0 0 Z " fill="#000000" transform="translate(82.37930583953857,685.8209237158298)"/>
<path d="M0 0 C4.66426484 3.32490416 5.7619763 8.93617268 6.86328125 14.23046875 C7.26801091 18.70892807 7.2648045 23.15748018 7.23801136 27.65189266 C7.24084186 28.99485663 7.24498674 30.33781835 7.25031659 31.68077472 C7.26113848 35.36314764 7.25336154 39.04527919 7.24248255 42.72764321 C7.23395504 46.73698373 7.24287128 50.74629224 7.24954671 54.75563103 C7.25883747 61.78015806 7.25698765 68.80461353 7.24781418 75.82913971 C7.23420985 86.27532723 7.23778139 96.72145982 7.24477278 107.16765133 C7.25670182 125.82706041 7.25161191 144.48643572 7.23949451 163.14584293 C7.22895906 179.48059887 7.22441891 195.8153433 7.22579002 212.15010262 C7.22587405 213.23355372 7.22595808 214.31700483 7.22604466 215.43328779 C7.22639691 219.83144779 7.22678093 224.22960778 7.22721024 228.62776777 C7.23117637 269.8976481 7.21845371 311.16750809 7.19768368 352.4373826 C7.17932561 389.08675955 7.17349842 425.73611699 7.17895508 462.38549805 C7.17930151 464.73745223 7.17964761 467.08940641 7.17999337 469.44136059 C7.18016436 470.60413059 7.18033536 471.7669006 7.18051154 472.96490607 C7.18136511 478.81839551 7.18218889 484.67188496 7.18298054 490.52537441 C7.18313762 491.68022665 7.1832947 492.83507889 7.18345654 494.02492665 C7.18744962 524.65917006 7.18196666 555.29341159 7.17346925 585.92765385 C7.17256222 589.22551076 7.17165657 592.52336767 7.17075401 595.82122459 C7.1701529 598.00888369 7.16954428 600.19654279 7.16892811 602.38420189 C7.16471076 617.62045452 7.16412683 632.85670345 7.1660336 648.09295647 C7.16847983 667.73737633 7.16437924 687.38177641 7.1488236 707.02619087 C7.14079069 717.40910199 7.13815893 727.79198022 7.14346595 738.17489328 C7.1464535 745.11975197 7.14210748 752.06458171 7.13191738 759.00943348 C7.12631733 762.96027557 7.12374437 766.91105084 7.13008396 770.86189335 C7.15310188 786.44850807 6.89318459 801.75160539 4.86328125 817.23046875 C-4.04671875 817.23046875 -12.95671875 817.23046875 -22.13671875 817.23046875 C-22.13671875 547.95046875 -22.13671875 278.67046875 -22.13671875 1.23046875 C-15.10870742 -1.11220169 -7.23021075 -2.6039333 0 0 Z " fill="#000000" transform="translate(1305.13671875,0.76953125)"/>
<path d="M0 0 C21.95694732 -0.46793185 43.9130691 -0.82022889 65.87399673 -1.03624344 C76.07199347 -1.13922805 86.26688678 -1.27951423 96.46289062 -1.50878906 C105.35372695 -1.70861902 114.24231613 -1.83726966 123.13533568 -1.8817699 C127.84236619 -1.90777625 132.54297103 -1.96849191 137.24793243 -2.11460114 C165.83963448 -2.96873711 165.83963448 -2.96873711 172.71486092 1.93725967 C176.91496846 6.56544448 179.21380866 11.65628903 181.13506508 17.54902267 C182.42902516 21.21573416 184.36229199 24.23917847 186.43359375 27.5234375 C187.76919942 29.80672439 189.10383556 32.09057869 190.4375 34.375 C191.90430441 36.88318923 193.37201204 39.39084935 194.83984375 41.8984375 C195.19762909 42.50983582 195.55541443 43.12123413 195.92404175 43.75115967 C199.10035442 49.17674694 202.2969896 54.59014528 205.5 60 C210.43713096 68.34220919 215.34913868 76.69895306 220.25 85.0625 C220.78059021 85.96782974 220.78059021 85.96782974 221.32189941 86.89144897 C225.05517048 93.26167435 228.78609653 99.6332647 232.51300049 106.00721741 C234.05406453 108.64245453 235.59601148 111.27717448 237.13806152 113.91183472 C237.86905972 115.1613489 238.59962275 116.41111779 239.32971191 117.66116333 C244.04759523 125.74676966 244.04759523 125.74676966 248.984375 133.69921875 C251 137 251 137 251 139 C229.86860645 139.23366884 208.73742607 139.40997575 187.6050024 139.51812172 C177.79262527 139.56967232 167.98105114 139.63994329 158.16918945 139.75439453 C149.61645123 139.85411101 141.06429452 139.91859198 132.51099116 139.94088495 C127.98227702 139.95391587 123.45522634 139.98450261 118.92704582 140.05730057 C114.66247577 140.12530355 110.40024981 140.14609376 106.13518906 140.13107681 C104.57220644 140.13382272 103.0091436 140.15364954 101.44663048 140.19205475 C89.65622087 140.46757988 89.65622087 140.46757988 85.57441902 136.85068893 C83.76417569 134.30419528 82.3651831 131.80524025 81 129 C80.07841715 127.5358939 79.14240653 126.08062489 78.18359375 124.640625 C77.26585595 123.17857033 76.35056902 121.71497491 75.4375 120.25 C74.3923148 118.58439206 73.34672533 116.91903775 72.30078125 115.25390625 C71.76146973 114.3942627 71.2221582 113.53461914 70.66650391 112.64892578 C67.83661709 108.15079043 64.98054276 103.66937574 62.125 99.1875 C61.54032959 98.26936523 60.95565918 97.35123047 60.35327148 96.40527344 C59.16303293 94.53622568 57.97268432 92.66724799 56.78222656 90.79833984 C53.85345187 86.19976238 50.92682309 81.59981973 48 77 C46.83334387 75.16665996 45.6666772 73.33332663 44.5 71.5 C37.5 60.5 37.5 60.5 35.74975586 57.74951172 C34.58402939 55.91772555 33.41817669 54.0860197 32.25219727 52.25439453 C29.32010086 47.64804282 26.39026849 43.04027962 23.46484375 38.4296875 C22.28916203 36.5780618 21.1133814 34.7264989 19.9375 32.875 C19.36757324 31.9768457 18.79764648 31.07869141 18.21044922 30.15332031 C15.24821739 25.49538504 12.26010161 20.85661154 9.23046875 16.2421875 C8.32276733 14.85797607 8.32276733 14.85797607 7.39672852 13.44580078 C6.23859904 11.68363106 5.0764881 9.92406991 3.90991211 8.16748047 C3.39565674 7.38518066 2.88140137 6.60288086 2.3515625 5.796875 C1.66827881 4.76578613 1.66827881 4.76578613 0.97119141 3.71386719 C0 2 0 2 0 0 Z " fill="#209CC1" transform="translate(866,687)"/>
<path d="M0 0 C1.06598923 -0.00953201 2.13197845 -0.01906403 3.23027039 -0.02888489 C4.95670525 -0.02751778 4.95670525 -0.02751778 6.71801758 -0.02612305 C7.91501785 -0.03040817 9.11201813 -0.0346933 10.34529114 -0.03910828 C12.88643767 -0.04485615 15.42760066 -0.0453485 17.96875 -0.04101562 C21.80278883 -0.03789051 25.63602927 -0.06118783 29.4699707 -0.08666992 C50.07867319 -0.14069331 72.08041464 0.16444142 88.67504883 14.2746582 C99.07804731 25.36713417 100.15737274 36.44708434 99.95239258 51.0715332 C99.60224821 60.81983106 96.42830837 67.36791549 89.67504883 74.2746582 C90.90351082 76.94473997 91.833761 78.42908086 93.98754883 80.5246582 C103.08546816 89.83415706 104.07989943 99.43981633 104.04077148 111.92163086 C103.81640578 124.29467925 100.48276117 133.26154075 91.86254883 142.1418457 C77.91124017 155.24932521 58.57561041 157.4149492 40.26098633 157.4777832 C38.97318268 157.48348328 37.68537903 157.48918335 36.35855103 157.49505615 C33.64373382 157.50550968 30.92894577 157.51139063 28.21411133 157.51489258 C24.74288899 157.52039712 21.27205495 157.54448994 17.80095482 157.57286453 C14.47513941 157.59599075 11.14937796 157.59793834 7.82348633 157.6027832 C6.58069916 157.61513 5.33791199 157.62747681 4.0574646 157.64019775 C2.3200853 157.63569611 2.3200853 157.63569611 0.54760742 157.63110352 C-0.97626083 157.63657196 -0.97626083 157.63657196 -2.53091431 157.64215088 C-5.84939484 157.20567944 -7.67399333 156.30308577 -10.32495117 154.2746582 C-12.45487273 150.97851661 -12.57802616 148.2756754 -12.58564758 144.39845276 C-12.59273239 143.19695587 -12.5998172 141.99545898 -12.6071167 140.7575531 C-12.60463928 139.44263382 -12.60216187 138.12771454 -12.59960938 136.77294922 C-12.60395745 135.37161996 -12.60914092 133.97029308 -12.61509705 132.56896973 C-12.628488 128.76524638 -12.62906563 124.96162239 -12.62653375 121.15788007 C-12.62546411 117.98189301 -12.6303472 114.80592606 -12.63513917 111.62994331 C-12.64623466 104.13706931 -12.64667151 96.64424543 -12.640625 89.15136719 C-12.63458402 81.42259762 -12.64689921 73.69401005 -12.66819507 65.96527153 C-12.68581017 59.32821319 -12.69181258 52.69121278 -12.68855733 46.05413193 C-12.68674419 42.09072575 -12.68938356 38.12744941 -12.70327187 34.16406441 C-12.7158442 30.43675673 -12.71391195 26.70973281 -12.70086098 22.9824295 C-12.69736653 20.96404278 -12.7086775 18.94564741 -12.72042847 16.92729187 C-12.71341415 15.72297516 -12.70639984 14.51865845 -12.69917297 13.27784729 C-12.69942459 11.71075689 -12.69942459 11.71075689 -12.69968128 10.11200809 C-12.26566936 6.82579316 -11.25374478 4.94616571 -9.32495117 2.2746582 C-6.27367746 0.14361906 -3.66645253 0.01807341 0 0 Z M22.67504883 33.2746582 C22.67504883 42.5146582 22.67504883 51.7546582 22.67504883 61.2746582 C27.27442383 61.3571582 31.87379883 61.4396582 36.61254883 61.5246582 C38.0446167 61.56107422 39.47668457 61.59749023 40.95214844 61.63500977 C49.25876055 61.70685324 56.22966275 61.16437102 62.67504883 55.5246582 C64.82467547 50.68799825 65.24381351 46.86121233 63.48754883 41.9621582 C59.54375922 36.11447017 54.70199287 35.18945794 48.04614258 33.8371582 C39.68877991 32.55778872 31.08404489 33.11084659 22.67504883 33.2746582 Z M22.67504883 95.2746582 C22.67504883 104.8446582 22.67504883 114.4146582 22.67504883 124.2746582 C46.0186855 126.00038925 46.0186855 126.00038925 66.67504883 117.2746582 C69.20994936 112.3200799 69.01761902 107.56418289 67.67504883 102.2746582 C65.16615583 98.12953065 61.27142126 97.19425679 56.82421875 95.89868164 C50.47136797 94.63983316 43.99660612 94.96945005 37.55004883 95.0871582 C36.10214617 95.10224052 34.65422821 95.11592262 33.20629883 95.12817383 C29.6951854 95.15830352 26.1862425 95.21706268 22.67504883 95.2746582 Z " fill="#209CC1" transform="translate(1942.324951171875,455.725341796875)"/>
<path d="M0 0 C1.62440002 -0.01441132 1.62440002 -0.01441132 3.28161621 -0.02911377 C5.05164001 -0.03548859 5.05164001 -0.03548859 6.85742188 -0.04199219 C8.68690369 -0.0505423 8.68690369 -0.0505423 10.55334473 -0.05926514 C13.14932383 -0.06873529 15.74531506 -0.07525707 18.34130859 -0.07910156 C22.25445769 -0.08869144 26.16705506 -0.11964667 30.08007812 -0.15136719 C52.58993033 -0.24735899 76.21509972 0.05879736 93.82617188 16.16113281 C105.48474479 29.09547549 107.49239302 43.18044084 106.96679688 59.89111328 C106.67570984 64.58994525 105.55263522 68.80386819 103.82617188 73.16113281 C103.55933594 73.86109375 103.2925 74.56105469 103.01757812 75.28222656 C99.32458922 83.70224126 92.5528135 90.37061501 84.82617188 95.16113281 C84.16617187 95.16113281 83.50617188 95.16113281 82.82617188 95.16113281 C86.51153238 102.07518496 90.63666999 108.62509562 94.95117188 115.16113281 C96.28079211 117.18834989 97.61021741 119.21569484 98.93945312 121.24316406 C99.59381348 122.23912598 100.24817383 123.23508789 100.92236328 124.26123047 C103.67222795 128.4498548 106.40951475 132.64649385 109.13867188 136.84863281 C109.812771 137.88020508 109.812771 137.88020508 110.50048828 138.93261719 C116.11763998 147.58517861 116.11763998 147.58517861 116.32617188 152.59863281 C116.37773438 153.33984375 116.42929688 154.08105469 116.48242188 154.84472656 C115.66023487 157.74685094 114.24960543 159.35405303 111.86328125 161.1730957 C107.60477095 163.23855486 102.95732232 162.78993851 98.32617188 162.66113281 C97.30652344 162.66371094 96.286875 162.66628906 95.23632812 162.66894531 C89.75876107 162.59771557 85.42685622 162.43149879 80.82617188 159.16113281 C76.59318494 154.73187137 73.47766904 149.66909561 70.26367188 144.47363281 C69.19998683 142.77173674 68.13618138 141.06991592 67.07226562 139.36816406 C66.53327637 138.50271973 65.99428711 137.63727539 65.43896484 136.74560547 C62.91850067 132.7066055 60.37159258 128.68443157 57.82617188 124.66113281 C56.83649744 123.09348199 55.84691457 121.52577335 54.85742188 119.95800781 C52.75736984 116.6324685 50.6524858 113.31004117 48.54492188 109.98925781 C48.00609375 109.13912109 47.46726562 108.28898437 46.91210938 107.41308594 C45.88732618 105.79640211 44.86136629 104.1804633 43.83398438 102.56542969 C42.4862592 100.43773649 41.15212735 98.30244811 39.82617188 96.16113281 C39.42591797 95.52264404 39.02566406 94.88415527 38.61328125 94.22631836 C36.62287627 90.93357691 35.27038807 88.35758007 35.32617188 84.47363281 C35.31585937 83.74789062 35.30554687 83.02214844 35.29492188 82.27441406 C36.08470436 79.13270578 37.21112492 78.08587234 39.82617188 76.16113281 C42.69523846 75.23707656 45.61048287 74.74016477 48.57617188 74.22363281 C56.45984848 72.65176541 62.62786364 71.15901811 67.82617188 64.66113281 C69.71108941 58.06392142 69.7699539 51.1497759 67.70117188 44.59863281 C62.6307085 38.00703042 55.63564647 36.65963603 47.82617188 35.16113281 C43.40937223 34.71649727 39.0128906 34.56530055 34.57617188 34.47363281 C33.43792969 34.43947266 32.2996875 34.4053125 31.12695312 34.37011719 C28.36012486 34.28873989 25.59356957 34.21924174 22.82617188 34.16113281 C22.83078084 34.78527919 22.8353898 35.40942556 22.84013844 36.05248547 C22.95058144 51.24244742 23.03331055 66.43228613 23.08523273 81.6225462 C23.11100968 88.96848155 23.14614993 96.31414883 23.20336914 103.65991211 C23.25322037 110.06283317 23.28546662 116.46556008 23.29661435 122.86866981 C23.30313041 126.25888435 23.3184328 129.64854349 23.35482216 133.03857994 C23.39103154 136.82415297 23.39612028 140.60856923 23.39379883 144.39428711 C23.41177521 145.51710083 23.42975159 146.63991455 23.44827271 147.79675293 C23.397643 155.40890125 23.397643 155.40890125 20.41569519 159.33406067 C15.49272152 162.80752932 11.46743637 162.41416514 5.57617188 162.47363281 C4.63386719 162.50263672 3.6915625 162.53164063 2.72070312 162.56152344 C-3.23961997 162.61586018 -6.64612139 162.14876995 -11.17382812 158.16113281 C-12.53207878 155.4446315 -12.31228513 153.30218365 -12.32772827 150.25968933 C-12.33632874 149.00204269 -12.3449292 147.74439606 -12.35379028 146.44863892 C-12.35822564 145.04705852 -12.36252399 143.64547768 -12.36669922 142.24389648 C-12.37459924 140.77389837 -12.38286813 139.3039022 -12.39147949 137.83390808 C-12.41770999 132.99899145 -12.4330076 128.1640661 -12.44726562 123.32910156 C-12.45262478 121.66565762 -12.45800229 120.00221374 -12.46339798 118.33876991 C-12.48502773 111.4202598 -12.50376517 104.50175204 -12.51502037 97.58321667 C-12.5312644 87.66281734 -12.56445178 77.74280939 -12.62142122 67.82255763 C-12.66009938 60.85009762 -12.67965049 53.87774238 -12.68494093 46.90517789 C-12.6885972 42.73928782 -12.70064707 38.57381509 -12.73304367 34.408041 C-12.76308753 30.48860096 -12.76944975 26.56983156 -12.75765991 22.65030098 C-12.75743887 21.2123604 -12.76576977 19.77438905 -12.78331375 18.33655548 C-12.80597446 16.37234338 -12.79473554 14.40782764 -12.78182983 12.44352722 C-12.78513998 11.34458224 -12.78845013 10.24563726 -12.79186058 9.11339092 C-11.97154278 5.19484288 -10.1940663 3.69436247 -7.17382812 1.16113281 C-4.63529987 -0.10813131 -2.84207342 0.02034425 0 0 Z " fill="#000000" transform="translate(1710.173828125,205.8388671875)"/>
<path d="M0 0 C1.0415625 -0.02449219 2.083125 -0.04898437 3.15625 -0.07421875 C10.82725474 -0.10364716 10.82725474 -0.10364716 14.7890625 2.2734375 C17.60473232 5.49648083 17.74847551 7.26833597 17.73852539 11.46728516 C17.73840454 12.54308838 17.73828369 13.6188916 17.73815918 14.72729492 C17.73304321 15.86142822 17.72792725 16.99556152 17.72265625 18.1640625 C17.72164917 19.20393311 17.72064209 20.24380371 17.71960449 21.31518555 C17.71436135 25.21013487 17.70040015 29.10506851 17.6875 33 C17.666875 41.70375 17.64625 50.4075 17.625 59.375 C36.765 59.375 55.905 59.375 75.625 59.375 C75.50637676 42.48679377 75.50637676 42.48679377 75.35473633 25.59887695 C75.34597291 23.47868299 75.33832863 21.35848397 75.33203125 19.23828125 C75.3090094 17.59249084 75.3090094 17.59249084 75.28552246 15.91345215 C75.28497864 14.33074524 75.28497864 14.33074524 75.28442383 12.71606445 C75.27443108 11.34705742 75.27443108 11.34705742 75.26423645 9.95039368 C75.70709733 6.7889293 76.75576316 4.94535686 78.625 2.375 C83.17241388 -0.65660925 87.64837783 -0.03291487 93 -0.0625 C94.0415625 -0.09537109 95.083125 -0.12824219 96.15625 -0.16210938 C103.84635191 -0.21619577 103.84635191 -0.21619577 107.7890625 2.77734375 C110.45427382 6.54833423 110.75230626 8.38547248 110.76544189 12.97273254 C110.77115204 14.16306595 110.77686218 15.35339935 110.78274536 16.57980347 C110.78442215 18.54894211 110.78442215 18.54894211 110.78613281 20.55786133 C110.79076021 21.94904207 110.79578476 23.34022155 110.80117798 24.73139954 C110.81431245 28.51661958 110.82074908 32.30182189 110.82518864 36.08706117 C110.82811796 38.4513455 110.83222252 40.81562496 110.83669281 43.17990685 C110.85037111 50.57545729 110.86003588 57.97099663 110.8638947 65.36655885 C110.86837505 73.90672504 110.88592036 82.44673114 110.9148953 90.98684865 C110.93650723 97.58564197 110.94659874 104.18439023 110.94793582 110.78321856 C110.9489843 114.72542799 110.95490087 118.667487 110.97275543 122.60965919 C110.98922755 126.31886728 110.99139594 130.02781176 110.98261642 133.73704338 C110.9814782 135.74591867 110.99520261 137.75478518 111.0093689 139.76361084 C111.00101517 141.56180016 111.00101517 141.56180016 110.99249268 143.39631653 C110.99395924 144.43626676 110.9954258 145.47621698 110.9969368 146.54768085 C110.56273676 149.84830101 109.58491727 151.70452505 107.625 154.375 C102.81438953 157.62694434 98.65999233 157.80971599 93.0625 157.6875 C91.9497168 157.69233398 91.9497168 157.69233398 90.81445312 157.69726562 C85.86741717 157.64880846 81.83224503 157.18809413 77.875 153.9375 C75.36853837 150.80442296 75.50285236 147.73069789 75.51147461 143.89379883 C75.51159546 142.75720825 75.51171631 141.62061768 75.51184082 140.44958496 C75.51695679 139.25579224 75.52207275 138.06199951 75.52734375 136.83203125 C75.52835083 135.73419312 75.52935791 134.63635498 75.53039551 133.50524902 C75.53563248 129.39932208 75.54959372 125.29341 75.5625 121.1875 C75.583125 112.009375 75.60375 102.83125 75.625 93.375 C56.485 93.375 37.345 93.375 17.625 93.375 C17.7041286 111.95367147 17.7041286 111.95367147 17.80517578 130.53222656 C17.81101659 132.86002418 17.81611312 135.18782384 17.8203125 137.515625 C17.83054443 138.72589355 17.84077637 139.93616211 17.85131836 141.18310547 C17.85156006 142.33987793 17.85180176 143.49665039 17.85205078 144.68847656 C17.856492 145.69219299 17.86093323 146.69590942 17.86550903 147.7300415 C17.61507753 150.48412071 17.13078184 152.07223768 15.625 154.375 C10.70147673 157.69237391 6.349687 157.8350201 0.625 157.75 C-0.54675781 157.76740234 -0.54675781 157.76740234 -1.7421875 157.78515625 C-6.62584988 157.76049129 -10.30634344 157.34172874 -14.375 154.375 C-18.20005413 147.87825238 -17.79890954 141.40217747 -17.76318359 134.0234375 C-17.7672537 132.67416968 -17.77259804 131.3249052 -17.77911377 129.97564697 C-17.79274117 126.32686371 -17.78750782 122.67833613 -17.77797651 119.02954865 C-17.77035608 115.20247228 -17.77743213 111.37541711 -17.78213501 107.54833984 C-17.78758564 101.12268157 -17.78041918 94.6971269 -17.76611328 88.27148438 C-17.74978805 80.85339492 -17.75507705 73.43555287 -17.7715925 66.01746941 C-17.78522716 59.63678311 -17.78711737 53.25617109 -17.77927649 46.87547493 C-17.77461083 43.06967237 -17.77394451 39.26398592 -17.78388596 35.45819092 C-17.79258227 31.8793765 -17.78648555 28.30087959 -17.76920319 24.7220993 C-17.76337501 22.79001801 -17.77223112 20.85790972 -17.78158569 18.92584229 C-17.73611136 12.68665515 -17.60914065 7.80113569 -14.375 2.375 C-9.82703906 -0.65697396 -5.35091978 0.00657361 0 0 Z " fill="#209CC1" transform="translate(1453.375,454.625)"/>
<path d="M0 0 C1.0415625 -0.02449219 2.083125 -0.04898437 3.15625 -0.07421875 C10.82725474 -0.10364716 10.82725474 -0.10364716 14.7890625 2.2734375 C18.18624875 6.16213155 17.77631025 9.62178796 17.78271484 14.56567383 C17.78779556 15.41315186 17.79287628 16.26062988 17.79811096 17.13378906 C17.80883033 18.9796984 17.81744434 20.82562086 17.82423019 22.67154884 C17.83602256 25.60317864 17.85548171 28.53466134 17.87734985 31.4662323 C17.93891618 39.80385348 17.99279026 48.14146361 18.02636719 56.47924805 C18.0474533 61.57806096 18.08287873 66.67661211 18.12712479 71.77527428 C18.14118864 73.70988544 18.14998524 75.644543 18.15317917 77.57920265 C17.94781716 98.92890096 17.94781716 98.92890096 27.625 117.375 C34.46897365 123.77844201 42.12372996 124.84276242 51.265625 124.6953125 C58.34744109 124.02006957 65.65312729 121.63933581 70.625 116.375 C79.21307934 105.48469457 79.05005836 92.94608799 79.00512505 79.72772789 C78.99593116 76.77194642 79.00632985 73.81678795 79.02174377 70.86103821 C79.06163318 62.46587942 79.06303921 54.07077501 79.06079102 45.67553711 C79.06073991 40.5209865 79.0799001 35.36677733 79.11012459 30.21232033 C79.12092849 27.30617182 79.10883803 24.40067978 79.09629822 21.49455261 C79.1052019 19.71079868 79.11527603 17.92705007 79.12670898 16.14331055 C79.11209373 14.93924057 79.11209373 14.93924057 79.09718323 13.71084595 C79.16381583 8.49546068 80.17615167 5.51666917 83.625 1.375 C87.59866795 -0.61183397 92.56820438 0.10243872 96.9375 0.0625 C98.50661133 0.01899414 98.50661133 0.01899414 100.10742188 -0.02539062 C107.82224716 -0.08923068 107.82224716 -0.08923068 111.79296875 2.20703125 C115.31374888 6.37341286 114.77920394 10.83737314 114.78613281 16.01464844 C114.79109772 16.89807419 114.79606262 17.78149994 114.80117798 18.69169617 C114.81581145 21.62259703 114.82260753 24.55344356 114.828125 27.484375 C114.83388038 29.52923585 114.83963806 31.57409669 114.84539795 33.61895752 C114.85591466 37.91638439 114.86175133 42.21379254 114.86523438 46.51123047 C114.87068667 51.98139188 114.89464131 57.45130027 114.92320633 62.9213829 C114.94197153 67.15283897 114.94704588 71.38423616 114.94857025 75.61573029 C114.95157175 77.62967546 114.95951416 79.64362023 114.97275543 81.65752411 C115.10809341 103.84581051 112.16432678 124.92479595 96.5 142.0625 C81.0505174 156.34727659 61.30876594 160.17798396 40.91894531 159.49804688 C25.58154921 158.6753513 10.75435646 152.57935264 -0.265625 141.78125 C-13.38166402 126.81924994 -17.509083 108.5398098 -17.53613281 89.18676758 C-17.54109772 88.31726974 -17.54606262 87.44777191 -17.55117798 86.55192566 C-17.56565125 83.70778586 -17.57257319 80.86370164 -17.578125 78.01953125 C-17.58095238 77.0423432 -17.58377975 76.06515514 -17.58669281 75.05835533 C-17.60161773 69.89672963 -17.61089203 64.73513145 -17.61523438 59.57348633 C-17.62073861 54.25058233 -17.64482669 48.92793159 -17.67320633 43.60510731 C-17.6918332 39.50012977 -17.69703813 35.3952136 -17.69857025 31.29019737 C-17.70159237 29.32742603 -17.709606 27.36465566 -17.72275543 25.40192604 C-17.73983229 22.659436 -17.73793278 19.91757063 -17.73144531 17.17504883 C-17.7406601 16.36919342 -17.74987488 15.56333801 -17.7593689 14.73306274 C-17.72355065 9.89322684 -17.07803685 6.55480963 -14.375 2.375 C-9.82703906 -0.65697396 -5.35091978 0.00657361 0 0 Z " fill="#209CC1" transform="translate(1703.375,454.625)"/>
<path d="M0 0 C2.33425152 2.01313756 3.93506039 3.72169595 4.65625 6.78515625 C5.13003448 15.09930972 0.73633209 20.88559815 -4.5625 26.94140625 C-7.49298251 29.75892232 -8.89762297 30.79987732 -13.0546875 31.31640625 C-17.50160713 30.83213437 -20.34891501 29.15427659 -23.97265625 26.72265625 C-38.10694527 17.77923217 -53.12268809 12.31971189 -69.94140625 16.03125 C-82.09235778 19.78669518 -92.25475257 26.49080662 -98.69140625 37.66796875 C-105.39064988 51.4014182 -106.40034277 66.00944655 -101.96875 80.59765625 C-98.02034695 91.435114 -90.15054054 100.65761764 -79.97265625 106.22265625 C-66.6682162 112.17394653 -53.56595738 112.19280522 -39.78515625 107.91015625 C-32.2110264 104.81140945 -25.07361795 101.17517933 -18.78515625 95.91015625 C-15.54188932 94.28852278 -12.29108861 94.35762657 -8.78515625 94.91015625 C-2.09186478 99.0080898 3.09724757 106.18483567 5.33984375 113.66015625 C5.12299108 119.29832564 2.89291367 122.50010925 -1.09765625 126.28515625 C-21.6690389 143.25935723 -46.78786108 147.8052566 -72.78515625 145.91015625 C-92.81134614 143.26531927 -110.88891277 132.78385252 -123.8828125 117.3984375 C-138.97053993 97.6635661 -144.04455677 75.28119432 -141.5625 50.70556641 C-138.97202346 31.78322988 -130.1996447 15.3484715 -116.78515625 1.91015625 C-116.17285156 1.28625 -115.56054688 0.66234375 -114.9296875 0.01953125 C-106.72394997 -7.74880023 -95.52249358 -13.70684706 -84.78515625 -17.08984375 C-83.84542969 -17.38761719 -82.90570312 -17.68539062 -81.9375 -17.9921875 C-52.65832477 -25.71221305 -23.68104904 -17.76909009 0 0 Z " fill="#000000" transform="translate(1577.78515625,224.08984375)"/>
<path d="M0 0 C0.94230469 -0.020625 1.88460937 -0.04125 2.85546875 -0.0625 C12.43621434 -0.11624892 12.43621434 -0.11624892 16.75 3.25 C22.64818517 10.96192261 26.30831182 20.4766904 30.375 29.25 C31.08389556 30.76907363 31.79321117 32.28795131 32.50292969 33.80664062 C34.59305991 38.2841672 36.67271008 42.76650502 38.75 47.25 C39.32191649 48.48308387 39.89385512 49.71615747 40.46582031 50.94921875 C43.40884933 57.29929254 46.33872718 63.65532999 49.26171875 70.01464844 C52.00164946 75.97094139 54.75161422 81.92260499 57.5 87.875 C58.51566444 90.07550263 59.53129331 92.27602168 60.546875 94.4765625 C60.97323242 95.40033691 61.39958984 96.32411133 61.83886719 97.27587891 C62.28987793 98.25306885 62.28987793 98.25306885 62.75 99.25 C68.08977691 88.67321867 73.2803428 78.03887418 78.3125 67.3125 C78.64916687 66.59697968 78.98583374 65.88145935 79.33270264 65.14425659 C83.24885715 56.81970886 87.11921022 48.47611262 90.91015625 40.09375 C91.24574051 39.35209091 91.58132477 38.61043182 91.92707825 37.84629822 C93.52589482 34.30907079 95.1183748 30.76916858 96.70141602 27.22485352 C106.75168768 4.81656408 106.75168768 4.81656408 112.75 1.25 C117.03182762 -0.17727587 121.13945436 0.02552231 125.625 0 C126.52347656 -0.020625 127.42195313 -0.04125 128.34765625 -0.0625 C136.88714641 -0.11295489 136.88714641 -0.11295489 140.75 3.25 C142.83315563 6.73252042 143.0544029 9.36726479 142.48144531 13.42089844 C140.80462492 19.9065442 137.55465216 25.87996535 134.625 31.875 C133.89880323 33.38631484 133.17380601 34.8982066 132.44995117 36.41064453 C130.59191563 40.28423219 128.71813253 44.14994061 126.8381958 48.01293945 C125.15666495 51.46974964 123.48297638 54.93034843 121.80859375 58.390625 C119.93604866 62.25900661 118.06209227 66.12667918 116.18261719 69.99169922 C112.15375158 78.28597293 108.23203381 86.62407452 104.375 95 C99.3539511 105.89544039 94.18313991 116.71125875 88.9375 127.5 C88.58673401 128.22199585 88.23596802 128.9439917 87.87457275 129.68786621 C86.18202521 133.16928596 84.48265824 136.64707728 82.77099609 140.11914062 C81.37322873 142.95822584 80.01263318 145.8119982 78.67041016 148.67773438 C77.9848279 150.11334209 77.29912246 151.54889098 76.61328125 152.984375 C76.31358932 153.64101135 76.0138974 154.29764771 75.7051239 154.97418213 C73.40827634 159.72575822 71.00805237 162.28974193 66.75 165.25 C62.7587147 165.94689108 60.43974841 166.29183759 56.97610474 164.15628052 C52.41699871 160.30568917 49.85245017 156.50521685 47.3671875 151.1171875 C46.99091217 150.33658966 46.61463684 149.55599182 46.22695923 148.7517395 C45.01010911 146.21686733 43.81744775 143.67142987 42.625 141.125 C41.77674437 139.34570815 40.92712072 137.56706789 40.07617188 135.7890625 C34.87568309 124.8919147 29.78311003 113.94267425 24.74365234 102.97021484 C20.06604956 92.8209763 15.16485757 82.78593632 10.25 72.75 C3.0084368 57.9605039 -4.09361212 43.12045328 -10.92724609 28.13720703 C-11.83586186 26.15394937 -12.75611312 24.17599389 -13.68603516 22.20263672 C-14.36738525 20.74494873 -14.36738525 20.74494873 -15.0625 19.2578125 C-15.46855469 18.39816895 -15.87460938 17.53852539 -16.29296875 16.65283203 C-17.82958937 12.79481668 -17.95911052 10.36284103 -17.25 6.25 C-11.96175742 -0.29072109 -7.87056899 0.04237184 0 0 Z " fill="#000000" transform="translate(2792.25,205.75)"/>
<path d="M0 0 C6.06514924 3.66312752 8.98900996 8.93212346 11.890625 15.18359375 C12.31716873 16.06746262 12.74371246 16.95133148 13.18318176 17.86198425 C14.55460796 20.71322257 15.90241631 23.57492721 17.25 26.4375 C18.19307357 28.4094126 19.13765958 30.38060258 20.08374023 32.35107422 C22.35112498 37.08179145 24.60106703 41.82052566 26.84466553 46.56256104 C28.35008388 49.73858099 29.87047835 52.90709901 31.39453125 56.07421875 C33.12280723 59.6667264 34.84377695 63.2624705 36.5546875 66.86328125 C38.27871652 70.49072207 40.01430131 74.11235077 41.7578125 77.73046875 C48.33489243 91.38084482 54.83811469 105.06475354 61.25268555 118.79223633 C64.11278338 124.90749742 66.9768087 131.01175199 70.01953125 137.0390625 C70.66208862 138.32804443 70.66208862 138.32804443 71.31762695 139.64306641 C72.06637632 141.1356178 72.830093 142.62083237 73.61401367 144.09521484 C76.19787819 149.28354783 76.80204378 154.23559586 76 160 C73.80873184 163.09799981 72.58943664 163.80352112 69 165 C65.58825374 165.27993617 62.17197109 165.27748665 58.75 165.3125 C57.82058594 165.34150391 56.89117188 165.37050781 55.93359375 165.40039062 C55.02222656 165.40876953 54.11085938 165.41714844 53.171875 165.42578125 C51.9358252 165.44765503 51.9358252 165.44765503 50.67480469 165.4699707 C46.91617671 164.8095692 43.93670713 163.38760428 41 161 C39.39471249 158.53984722 38.22831036 156.45390001 37.06640625 153.80859375 C36.73653214 153.10496201 36.40665802 152.40133026 36.06678772 151.67637634 C35.37438807 150.19627822 34.69054239 148.71215081 34.01495361 147.2243042 C32.72383315 144.39477128 31.37360193 141.59566732 30.02310181 138.79412842 C28.30804697 135.22630555 26.62451072 131.64364483 24.9375 128.0625 C24.57748901 127.29995911 24.21747803 126.53741821 23.84655762 125.75177002 C17.74316625 112.81912611 11.77531555 99.82763655 5.90991211 86.78540039 C2.75404063 79.77851976 -0.48357276 72.83437882 -4 66 C-8.90744791 75.65738655 -13.61686686 85.36979324 -18.04403687 95.25637817 C-23.94663221 108.42708713 -30.01741042 121.51518659 -36.1875 134.5625 C-36.55116669 135.33235229 -36.91483337 136.10220459 -37.28952026 136.89538574 C-38.33095408 139.09888369 -39.37401662 141.30160041 -40.41796875 143.50390625 C-40.72156311 144.14532059 -41.02515747 144.78673492 -41.33795166 145.44758606 C-42.21897519 147.30150383 -43.10800792 149.15133686 -44 151 C-44.50583115 152.05971512 -44.50583115 152.05971512 -45.0218811 153.14083862 C-45.36568817 153.84838287 -45.70949524 154.55592712 -46.0637207 155.28491211 C-46.37291946 155.92569199 -46.68211823 156.56647186 -47.00068665 157.22666931 C-49.19380946 161.1184736 -51.7975847 163.5991949 -56 165 C-59.43221313 165.30462289 -62.86835564 165.32355996 -66.3125 165.375 C-67.71918945 165.43107422 -67.71918945 165.43107422 -69.15429688 165.48828125 C-73.66117114 165.5454509 -76.97353328 165.55545167 -80.59765625 162.67578125 C-83.69442726 159.22653224 -84.15199556 157.63586463 -84 153 C-81.52270593 145.24185307 -77.6328625 137.92016544 -74.0625 130.625 C-72.89285924 128.21693554 -71.72435431 125.80837729 -70.55859375 123.3984375 C-70.26170654 122.78484375 -69.96481934 122.17125 -69.65893555 121.5390625 C-66.57297149 115.14389087 -63.59638508 108.69908426 -60.625 102.25 C-56.02488684 92.2783131 -51.30539336 82.37386019 -46.5 72.5 C-41.61370315 62.45908001 -36.8128302 52.38517605 -32.125 42.25 C-31.59124756 41.09790039 -31.05749512 39.94580078 -30.50756836 38.75878906 C-28.12702877 33.61548762 -25.75669884 28.46783581 -23.40234375 23.3125 C-22.62272523 21.6248478 -21.84280064 19.93733693 -21.0625 18.25 C-20.5687085 17.15220215 -20.5687085 17.15220215 -20.06494141 16.03222656 C-15.84185052 6.95503273 -11.21943374 -1.52127915 0 0 Z " fill="#000000" transform="translate(2229,203)"/>
<path d="M0 0 C0.95473709 -0.00571014 1.90947418 -0.01142029 2.8931427 -0.01730347 C3.94408112 -0.01842133 4.99501953 -0.01953918 6.07780457 -0.02069092 C7.1819722 -0.02565582 8.28613983 -0.03062073 9.42376709 -0.03573608 C13.08994665 -0.05038504 16.75608293 -0.05716437 20.42228699 -0.06268311 C22.96335858 -0.06843243 25.50443015 -0.07419019 28.04550171 -0.07995605 C32.69712239 -0.08912834 37.34873001 -0.0954254 42.00035745 -0.09845281 C48.84484569 -0.10293185 55.68913406 -0.12047154 62.53356153 -0.1494534 C68.46237297 -0.17368601 74.39113469 -0.18139771 80.31999779 -0.18312836 C82.84180985 -0.18615919 85.36362098 -0.19420213 87.88540077 -0.20731354 C91.41192953 -0.22433947 94.9379703 -0.22250191 98.46452332 -0.21600342 C99.50938904 -0.2252182 100.55425476 -0.23443298 101.63078308 -0.243927 C108.0824198 -0.20662397 111.77248492 0.44767108 116.46525574 5.14044189 C117.78162488 9.18507531 117.68629722 13.30197801 117.71525574 17.51544189 C117.74619324 18.62919189 117.74619324 18.62919189 117.77775574 19.76544189 C117.81184814 24.58951623 117.39106071 28.10853992 114.46525574 32.14044189 C109.06003303 35.03918108 104.75212222 35.55485045 98.68791199 35.43341064 C97.87656296 35.4291658 97.06521393 35.42492096 96.22927856 35.42054749 C93.66175317 35.40388057 91.0950401 35.36625238 88.52775574 35.32794189 C86.77711611 35.31287949 85.02646406 35.29919382 83.27580261 35.28692627 C79.00531182 35.25401658 74.73542105 35.20231915 70.46525574 35.14044189 C70.4698647 35.75335901 70.47447367 36.36627613 70.4792223 36.99776649 C70.58971112 51.92100155 70.67241688 66.84419706 70.7243166 81.76774025 C70.75008305 88.98473436 70.78520317 96.20145522 70.842453 103.41827393 C70.89233644 109.70950327 70.9245581 116.00053469 70.93569821 122.29195631 C70.94220891 125.62243652 70.96010997 128.95221951 70.99390602 132.28255081 C71.03016446 136.00326457 71.03520209 139.72280275 71.03288269 143.44366455 C71.05085907 144.54418152 71.06883545 145.64469849 71.08735657 146.77856445 C71.03106874 155.1148529 71.03106874 155.1148529 68.05477905 158.80899048 C63.34411153 163.05019287 59.25214243 162.35775931 53.15275574 162.39044189 C51.72673035 162.42137939 51.72673035 162.42137939 50.27189636 162.45294189 C41.11865488 162.50411306 41.11865488 162.50411306 37.46525574 159.14044189 C33.70226089 153.52118986 34.0597485 148.13982558 34.12467957 141.6272583 C34.12402245 139.89956207 34.12402245 139.89956207 34.12335205 138.13696289 C34.12543828 134.33846962 34.14876245 130.54042036 34.17228699 126.74200439 C34.17788351 124.10499309 34.18215334 121.46797867 34.18515015 118.83096313 C34.19445943 112.60495971 34.21905791 106.37911507 34.24919862 100.15318143 C34.28277756 93.06251042 34.29923739 85.97183167 34.31428492 78.88110089 C34.34560858 64.30079947 34.39834721 49.7206229 34.46525574 35.14044189 C32.83898254 35.16400757 32.83898254 35.16400757 31.17985535 35.18804932 C27.13387057 35.24260096 23.08791792 35.27688323 19.04167175 35.30523682 C17.29487123 35.32026619 15.54810809 35.34069544 13.80143738 35.36676025 C11.28173058 35.4034027 8.76252535 35.42022681 6.24259949 35.43341064 C5.08279823 35.45663643 5.08279823 35.45663643 3.89956665 35.48033142 C-1.31178487 35.48192666 -4.90452463 34.57567846 -9.53474426 32.14044189 C-12.73352928 27.90355644 -11.94258742 22.28085276 -11.97224426 17.20294189 C-12.00511536 16.21358643 -12.03798645 15.22423096 -12.07185364 14.20489502 C-12.12581518 6.91027572 -12.12581518 6.91027572 -9.13240051 3.01153564 C-5.72698663 0.55861347 -4.12377594 0.01473782 0 0 Z " fill="#000000" transform="translate(2400.5347442626953,205.85955810546875)"/>
<path d="M0 0 C0.88945312 -0.01160156 1.77890625 -0.02320313 2.6953125 -0.03515625 C7.55560489 -0.01339375 11.17049365 0.05319336 15 3.375 C17.74390912 7.18704187 18.37599669 9.81811992 18.38095093 14.48535156 C18.39364014 16.32752258 18.39364014 16.32752258 18.40658569 18.20690918 C18.40075335 19.55981579 18.39460888 20.91272108 18.38818359 22.265625 C18.39225064 23.69665935 18.39759327 25.12769055 18.40411377 26.55871582 C18.41777744 30.43887549 18.41249273 34.31879555 18.40297651 38.19895935 C18.39537498 42.26187785 18.4024269 46.324776 18.40713501 50.38769531 C18.41259112 57.21032388 18.40540475 64.03285498 18.39111328 70.85546875 C18.374787 78.74047786 18.38007562 86.62525425 18.3965925 94.51025772 C18.41021149 101.28322464 18.41212501 108.05612155 18.40427649 114.82909775 C18.39960223 118.87296106 18.39896828 122.91671502 18.40888596 126.96057129 C18.41755939 130.76259746 18.41152705 134.56432392 18.39420319 138.36631775 C18.39024033 139.76069135 18.39136899 141.15509023 18.39799118 142.54945374 C18.40620382 144.4545094 18.39407311 146.35962026 18.38095093 148.26464844 C18.37981985 149.33019958 18.37868877 150.39575073 18.37752342 151.49359131 C17.82322853 155.72419003 16.14843489 158.36984394 12.96484375 161.15625 C8.52210004 162.98251619 4.32085342 162.88815371 -0.4375 162.875 C-1.36626953 162.90335938 -2.29503906 162.93171875 -3.25195312 162.9609375 C-7.73492206 162.9737004 -11.00241169 162.88942114 -14.59765625 160.03125 C-18.0630215 156.19962664 -18.12654572 153.49150648 -18.14044189 148.50515747 C-18.14615204 147.27979279 -18.15186218 146.0544281 -18.15774536 144.79193115 C-18.15899069 143.4317628 -18.1601158 142.07159433 -18.16113281 140.71142578 C-18.16576151 139.28068921 -18.17078624 137.84995387 -18.17617798 136.41921997 C-18.18929809 132.53075663 -18.19574605 128.64231055 -18.20018864 124.75382853 C-18.20311969 122.32471261 -18.20722454 119.89560142 -18.21169281 117.46648788 C-18.22536606 109.86697732 -18.23503384 102.26747753 -18.2388947 94.66795552 C-18.24337667 85.89404916 -18.26093168 77.12029849 -18.2898953 68.34643948 C-18.31150499 61.56503737 -18.32159858 54.7836791 -18.32293582 48.00224292 C-18.32398426 43.95162082 -18.32990048 39.90114511 -18.34775543 35.85055923 C-18.36422411 32.04038458 -18.3663976 28.23046656 -18.35761642 24.42026901 C-18.35684543 23.02265994 -18.36119709 21.62503714 -18.37107468 20.22746277 C-18.38377796 18.31795367 -18.37613154 16.40834163 -18.36749268 14.49880981 C-18.36895924 13.43066103 -18.3704258 12.36251225 -18.3719368 11.26199532 C-17.82423271 7.01068398 -16.14767444 4.37052064 -12.9375 1.5859375 C-8.62560533 -0.19157227 -4.61746057 -0.06022775 0 0 Z " fill="#000000" transform="translate(2648,205.625)"/>
<path d="M0 0 C0.85901413 -0.00671722 1.71802826 -0.01343445 2.60307312 -0.02035522 C5.44198394 -0.03934851 8.28065851 -0.04326009 11.11962891 -0.04541016 C13.09494117 -0.05183714 15.07025248 -0.05856543 17.04556274 -0.06558228 C21.18648485 -0.07755835 25.32732351 -0.08126275 29.46826172 -0.08007812 C34.77012033 -0.07987491 40.07144305 -0.10717786 45.37317467 -0.14162254 C49.45330251 -0.16387796 53.5333011 -0.16791608 57.61348343 -0.16685867 C59.56788607 -0.16921664 61.52229216 -0.1780512 63.47663498 -0.19352341 C66.21266786 -0.21315589 68.94754154 -0.20735623 71.68359375 -0.1953125 C72.48795364 -0.20655151 73.29231354 -0.21779053 74.12104797 -0.22937012 C79.34413854 -0.17105146 82.3243689 0.83444749 86.47119141 4.29052734 C88.40028721 8.14871894 87.65599541 12.92203645 87.65869141 17.16552734 C87.6709375 18.17228516 87.68318359 19.17904297 87.69580078 20.21630859 C87.69773437 21.18697266 87.69966797 22.15763672 87.70166016 23.15771484 C87.70576904 24.04571777 87.70987793 24.9337207 87.71411133 25.84863281 C87.43553722 28.64893254 87.18570947 30.04156438 85.47119141 32.29052734 C79.86389697 35.27248451 75.32999029 35.71046695 69.04760742 35.63110352 C68.1297496 35.6315416 67.21189178 35.63197968 66.26622009 35.63243103 C63.25229125 35.630352 60.23892854 35.60706274 57.22509766 35.58349609 C55.12760217 35.57789699 53.03010275 35.57362838 50.93260193 35.57063293 C45.42686018 35.55920895 39.92135793 35.52976272 34.41571045 35.496521 C28.79165893 35.4657674 23.1675685 35.4521163 17.54345703 35.43701172 C6.51926358 35.40489075 -4.50475254 35.35372394 -15.52880859 35.29052734 C-15.61600491 30.72814803 -15.66926781 26.16598348 -15.71630859 21.60302734 C-15.74144531 20.30945313 -15.76658203 19.01587891 -15.79248047 17.68310547 C-15.80214844 16.4359375 -15.81181641 15.18876953 -15.82177734 13.90380859 C-15.83748779 12.7569458 -15.85319824 11.61008301 -15.86938477 10.4284668 C-15.48511772 6.88797621 -14.71535536 5.08312951 -12.52880859 2.29052734 C-8.90190378 -0.54694548 -4.39848357 -0.0049315 0 0 Z " fill="#000000" transform="translate(3059.52880859375,205.70947265625)"/>
<path d="M0 0 C0.86032837 -0.0049649 1.72065674 -0.00992981 2.60705566 -0.01504517 C5.4615966 -0.02968522 8.31608194 -0.03647217 11.1706543 -0.04199219 C13.15121971 -0.04774252 15.1317851 -0.05350027 17.11235046 -0.05926514 C21.26940165 -0.06978064 25.42643347 -0.07561958 29.58349609 -0.07910156 C34.91006386 -0.0845847 40.2363758 -0.10860662 45.56286335 -0.13707352 C49.65580492 -0.1556992 53.7486849 -0.16090548 57.84166527 -0.16243744 C59.80526311 -0.16546511 61.76885984 -0.17349746 63.73241615 -0.18662262 C66.48066263 -0.20368012 69.22828454 -0.20180349 71.9765625 -0.1953125 C73.19320839 -0.20913467 73.19320839 -0.20913467 74.43443298 -0.22323608 C79.03096438 -0.18923325 82.02909277 0.29882956 85.68237305 3.16113281 C88.66575818 7.52003333 88.05043844 12.51210222 88.05737305 17.59863281 C88.08186523 18.54029297 88.10635742 19.48195312 88.1315918 20.45214844 C88.14965717 24.71858841 88.09528858 27.42863197 85.97143555 31.19628906 C80.87471505 35.57111911 75.88954613 35.44166391 69.48583984 35.38818359 C68.56827408 35.38847565 67.65070831 35.3887677 66.70533752 35.3890686 C63.68065852 35.38767828 60.65622763 35.37213097 57.6315918 35.35644531 C55.53123611 35.35271413 53.43087868 35.34986765 51.33052063 35.34786987 C45.80837174 35.34024174 40.28632843 35.3206002 34.76422119 35.29846191 C29.12692696 35.27798588 23.48961564 35.26886439 17.85229492 35.25878906 C6.79560797 35.23735361 -4.2610007 35.20322748 -15.31762695 35.16113281 C-15.44168702 31.12288216 -15.5321774 27.08537643 -15.59228516 23.0456543 C-15.61735312 21.6730618 -15.65141778 20.3006018 -15.69482422 18.9284668 C-15.75580227 16.95062585 -15.78123704 14.97179098 -15.8059082 12.99316406 C-15.83209229 11.80440674 -15.85827637 10.61564941 -15.88525391 9.39086914 C-15.15442038 5.23250495 -13.52682665 3.80259981 -10.31762695 1.16113281 C-7.08691469 -0.45422332 -3.54996299 0.00485622 0 0 Z " fill="#000000" transform="translate(1952.317626953125,205.8388671875)"/>
<path d="M0 0 C12.69116133 -0.11581875 25.38219705 -0.20467765 38.07377911 -0.25906086 C43.96693772 -0.28516136 49.85973494 -0.32056862 55.75268555 -0.37719727 C61.43908556 -0.43149947 67.12513784 -0.46141712 72.81177711 -0.47438622 C74.98195687 -0.48362921 77.15211745 -0.50167862 79.32214928 -0.52865028 C82.3606119 -0.56491594 85.39763528 -0.56994627 88.4362793 -0.56762695 C89.33467529 -0.58560333 90.23307129 -0.60357971 91.15869141 -0.62210083 C95.61767479 -0.58524035 97.4262587 -0.44517994 101.05828857 2.3730011 C103.24477971 5.33116972 103.63181653 6.70913308 103.62890625 10.34375 C103.63083984 11.34277344 103.63277344 12.34179688 103.63476562 13.37109375 C103.61091797 14.40363281 103.58707031 15.43617188 103.5625 16.5 C103.57345703 17.53253906 103.58441406 18.56507813 103.59570312 19.62890625 C103.55152977 24.19348669 103.48852636 27.16547717 101.15234375 31.15625 C97.05698869 34.66443074 92.68278721 34.15410621 87.56884766 34.16113281 C86.27813606 34.16858017 86.27813606 34.16858017 84.96134949 34.17617798 C82.11224572 34.19079373 79.26319761 34.19760036 76.4140625 34.203125 C74.43492633 34.2088766 72.45579018 34.21463433 70.47665405 34.22039795 C66.32557923 34.23090603 62.17452376 34.23675007 58.0234375 34.24023438 C52.70474551 34.24572102 47.38630927 34.26975355 42.06769753 34.29820633 C37.97904716 34.31683018 33.89045846 34.32203816 29.80176926 34.32357025 C27.84096248 34.32659749 25.88015681 34.33462841 23.91939163 34.34775543 C21.1760435 34.36481179 18.43332107 34.36293678 15.68994141 34.35644531 C14.88041519 34.3656601 14.07088898 34.37487488 13.23683167 34.3843689 C8.65787317 34.35043091 5.57123564 33.96371883 2 31 C-0.37790669 27.71932813 -0.23273526 24.66993796 -0.1953125 20.703125 C-0.18886719 19.49785156 -0.18242187 18.29257812 -0.17578125 17.05078125 C-0.15064453 15.16939453 -0.15064453 15.16939453 -0.125 13.25 C-0.11597656 11.98027344 -0.10695313 10.71054687 -0.09765625 9.40234375 C-0.07409005 6.26803907 -0.04118832 3.13411459 0 0 Z " fill="#000000" transform="translate(3044,334)"/>
<path d="M0 0 C12.69111804 -0.13898203 25.38205523 -0.24561245 38.07377911 -0.31087303 C43.96702123 -0.34219408 49.85974295 -0.38468243 55.75268555 -0.45263672 C61.43910146 -0.51779955 67.12501667 -0.55370021 72.81177711 -0.56926346 C74.98198137 -0.58035517 77.15215803 -0.60201495 79.32214928 -0.63438034 C82.36079628 -0.67790177 85.39737108 -0.68393577 88.4362793 -0.68115234 C89.33467529 -0.702724 90.23307129 -0.72429565 91.15869141 -0.746521 C97.10560739 -0.68752832 97.10560739 -0.68752832 99.67733765 1.2893858 C102.44732441 4.47968736 103.63648061 7.02429924 103.6640625 11.22265625 C103.67050781 12.17333984 103.67695312 13.12402344 103.68359375 14.10351562 C103.65458984 15.56821289 103.65458984 15.56821289 103.625 17.0625 C103.64433594 18.04283203 103.66367188 19.02316406 103.68359375 20.03320312 C103.65092418 24.84543109 103.59882113 27.22579598 100.5859375 31.12109375 C96.23798728 34.28025395 92.92775115 34.15976107 87.69824219 34.17700195 C86.41015907 34.18685875 86.41015907 34.18685875 85.09605408 34.19691467 C82.24632688 34.21666971 79.39665246 34.22831577 76.546875 34.23828125 C75.5743 34.24235678 74.60172501 34.2464323 73.59967804 34.25063133 C68.45105704 34.27150245 63.30246277 34.28579911 58.15380859 34.29516602 C52.83623045 34.30622676 47.5190712 34.3406199 42.20164108 34.38033772 C38.11294783 34.40648893 34.02435455 34.41485658 29.93558502 34.41844749 C27.97559025 34.42331808 26.01560008 34.43494548 24.05568695 34.45348549 C21.30989975 34.47784286 18.56519819 34.47691805 15.81933594 34.4699707 C14.60808296 34.48918579 14.60808296 34.48918579 13.37236023 34.50878906 C8.13740841 34.46059268 5.15527536 33.46750129 1 30 C-0.40912096 27.18175808 -0.11183553 24.82748718 -0.09765625 21.6796875 C-0.09443359 20.42285156 -0.09121094 19.16601562 -0.08789062 17.87109375 C-0.07951172 16.55238281 -0.07113281 15.23367188 -0.0625 13.875 C-0.05748489 12.53515789 -0.05292201 11.195314 -0.04882812 9.85546875 C-0.03701086 6.57026794 -0.02053617 3.28515603 0 0 Z " fill="#000000" transform="translate(1937,334)"/>
<path d="M0 0 C11.23975967 -0.06780995 22.47938319 -0.12283593 33.71930122 -0.15543652 C38.93859591 -0.17108411 44.15774324 -0.19230601 49.37695312 -0.22631836 C54.41495078 -0.25894387 59.45280679 -0.27685983 64.49090195 -0.28463173 C66.41181543 -0.29016949 68.33272127 -0.3009834 70.25357437 -0.31719017 C72.94672574 -0.33900679 75.63929383 -0.34196515 78.33251953 -0.34057617 C79.12446213 -0.351362 79.91640472 -0.36214783 80.73234558 -0.3732605 C85.55924208 -0.34637053 88.79095464 0.38854322 93 3 C97.14175563 7.23927315 96.51537477 11.76320766 96.5 17.375 C96.52835938 18.30828125 96.55671875 19.2415625 96.5859375 20.203125 C96.59867543 24.69961382 96.52452563 27.99468436 93.65625 31.6015625 C89.26965185 35.56240259 85.1923827 35.13836705 79.58129883 35.11352539 C78.29317039 35.11374443 78.29317039 35.11374443 76.97901917 35.1139679 C74.1383309 35.11327079 71.29770807 35.10548783 68.45703125 35.09765625 C66.48833756 35.09579135 64.51964341 35.09436779 62.5509491 35.09336853 C57.36746949 35.08954901 52.18401786 35.07972352 47.00054932 35.06866455 C41.7119586 35.0584383 36.42336337 35.0538683 31.13476562 35.04882812 C20.75649614 35.03810077 10.37825477 35.02050851 0 35 C0 23.45 0 11.9 0 0 Z " fill="#000000" transform="translate(3044,269)"/>
<path d="M0 0 C11.09210509 -0.06784481 22.18407179 -0.12285603 33.27633762 -0.15543652 C38.42722359 -0.17107549 43.57795991 -0.19228156 48.72875977 -0.22631836 C53.70192366 -0.25897473 58.67494385 -0.27686632 63.64820671 -0.28463173 C65.54317422 -0.29016396 67.4381341 -0.30096707 69.33304024 -0.31719017 C71.99246183 -0.33904789 74.65129369 -0.34196344 77.31079102 -0.34057617 C78.0897876 -0.351362 78.86878418 -0.36214783 79.67138672 -0.3732605 C84.83501196 -0.3442185 88.40732013 0.59722834 93 3 C96.87168821 7.23515282 96.44990013 12.06557965 96.375 17.5 C96.38660156 18.34175781 96.39820313 19.18351562 96.41015625 20.05078125 C96.38766909 24.81056269 96.21843008 28.23345301 93 32 C88.66072524 35.37172404 84.64113592 35.41142257 79.35424805 35.34057617 C78.06568153 35.34123329 78.06568153 35.34123329 76.75108337 35.34190369 C73.9210613 35.33981921 71.09163691 35.31650428 68.26171875 35.29296875 C66.29588647 35.28737158 64.33005 35.28310205 62.36421204 35.28010559 C57.19709667 35.26866635 52.03023539 35.23920697 46.86322021 35.20599365 C41.5878849 35.17527299 36.31250841 35.16159598 31.03710938 35.14648438 C20.69127681 35.11433644 10.34569931 35.0615759 0 35 C0 23.45 0 11.9 0 0 Z " fill="#000000" transform="translate(1937,269)"/>
</svg>
